<?xml version="1.0" encoding="UTF-8" standalone="no"?>
<!-- Created with Inkscape (http://www.inkscape.org/) -->

<svg
   xmlns:dc="http://purl.org/dc/elements/1.1/"
   xmlns:cc="http://creativecommons.org/ns#"
   xmlns:rdf="http://www.w3.org/1999/02/22-rdf-syntax-ns#"
   xmlns:svg="http://www.w3.org/2000/svg"
   xmlns="http://www.w3.org/2000/svg"
   xmlns:sodipodi="http://sodipodi.sourceforge.net/DTD/sodipodi-0.dtd"
   xmlns:inkscape="http://www.inkscape.org/namespaces/inkscape"
   width="32"
   height="32"
   viewBox="0 0 10 10"
   version="1.1"
   id="svg8"
   inkscape:version="0.92.3 (2405546, 2018-03-11)"
   sodipodi:docname="icon.svg">
  <defs
     id="defs2">
    <inkscape:path-effect
       effect="bspline"
       id="path-effect930"
       is_visible="true"
       weight="33.333333"
       steps="2"
       helper_size="0"
       apply_no_weight="true"
       apply_with_weight="true"
       only_selected="false" />
    <inkscape:path-effect
       effect="bspline"
       id="path-effect926"
       is_visible="true"
       weight="33.333333"
       steps="2"
       helper_size="0"
       apply_no_weight="true"
       apply_with_weight="true"
       only_selected="false" />
    <inkscape:path-effect
       effect="spiro"
       id="path-effect115"
       is_visible="true" />
    <inkscape:path-effect
       effect="spiro"
       id="path-effect111"
       is_visible="true" />
    <inkscape:path-effect
       effect="spiro"
       id="path-effect67"
       is_visible="true" />
    <inkscape:path-effect
       effect="spiro"
       id="path-effect63"
       is_visible="true" />
    <inkscape:path-effect
       effect="spiro"
       id="path-effect59"
       is_visible="true" />
    <inkscape:path-effect
       effect="spiro"
       id="path-effect55"
       is_visible="true" />
    <inkscape:path-effect
       effect="spiro"
       id="path-effect51"
       is_visible="true" />
    <inkscape:path-effect
       effect="spiro"
       id="path-effect47"
       is_visible="true" />
    <inkscape:path-effect
       effect="spiro"
       id="path-effect43"
       is_visible="true" />
    <inkscape:path-effect
       effect="bspline"
       id="path-effect930-3"
       is_visible="true"
       weight="33.333333"
       steps="2"
       helper_size="0"
       apply_no_weight="true"
       apply_with_weight="true"
       only_selected="false" />
    <inkscape:path-effect
       effect="bspline"
       id="path-effect926-7"
       is_visible="true"
       weight="33.333333"
       steps="2"
       helper_size="0"
       apply_no_weight="true"
       apply_with_weight="true"
       only_selected="false" />
    <inkscape:path-effect
       effect="bspline"
       id="path-effect926-3"
       is_visible="true"
       weight="33.333333"
       steps="2"
       helper_size="0"
       apply_no_weight="true"
       apply_with_weight="true"
       only_selected="false" />
  </defs>
  <sodipodi:namedview
     id="base"
     pagecolor="#ffffff"
     bordercolor="#666666"
     borderopacity="1.0"
     inkscape:pageopacity="0.0"
     inkscape:pageshadow="2"
     inkscape:zoom="7.9195959"
     inkscape:cx="10.563219"
     inkscape:cy="5.5784184"
     inkscape:document-units="px"
     inkscape:current-layer="layer1"
     showgrid="false"
     units="px"
     inkscape:window-width="1600"
     inkscape:window-height="838"
     inkscape:window-x="0"
     inkscape:window-y="0"
     inkscape:window-maximized="1" />
  <metadata
     id="metadata5">
    <rdf:RDF>
      <cc:Work
         rdf:about="">
        <dc:format>image/svg+xml</dc:format>
        <dc:type
           rdf:resource="http://purl.org/dc/dcmitype/StillImage" />
        <dc:title />
      </cc:Work>
    </rdf:RDF>
  </metadata>
  <g
     inkscape:label="Calque 1"
     inkscape:groupmode="layer"
     id="layer1"
     style="fill:#00003f">
    <rect
       id="fond"
       width="10"
       height="10"
       x="0"
       y="0"
       style="stroke-width:0.3125" />
    <path
       style="fill:#ff0178;stroke-width:1.12595928"
       d="M 6.336104,4.1207766 C 6.0386188,4.2912179 5.6943534,4.3552427 5.3624477,4.4411859 5.030542,4.5271291 4.6906585,4.6461429 4.4548588,4.8950327 4.2788695,5.0807918 4.1764509,5.3229554 4.0869362,5.5626757 3.9974215,5.8023959 3.9153868,6.048932 3.7698016,6.2593687 3.5752015,6.5406542 3.27224,6.7413246 2.9412366,6.8275073 2.6102332,6.9136901 2.253692,6.8878724 1.9321572,6.771227 1.4437228,6.5940343 1.0410772,6.2100232 0.80787892,5.7457131 0.57468063,5.2814029 0.50596597,4.74245 0.57831115,4.2279293 0.65065633,3.7134086 0.85973441,3.2230852 1.1499393,2.7921021 1.4401442,2.3611189 1.8100219,1.9876101 2.2148645,1.6619295 2.8110269,1.1823393 3.5023749,0.79689328 4.2568102,0.66944228 4.6340278,0.60571678 5.0238643,0.60786222 5.397022,0.69216778 5.7701797,0.77647335 6.1261997,0.94413894 6.4184516,1.1910051 6.8558916,1.5605121 7.1409574,2.1179873 7.1393625,2.6906011 7.1385651,2.976908 7.0674699,3.2634884 6.9290261,3.5140989 6.7905824,3.7647094 6.584527,3.978445 6.336104,4.1207766 Z"
       id="path109"
       inkscape:connector-curvature="0"
       inkscape:path-effect="#path-effect111"
       inkscape:original-d="M 6.336104,4.1207766 C 6.3085854,5.0977812 5.0820086,4.6365296 4.4548588,4.8950327 3.8277088,5.1535359 3.9982261,5.8041786 3.7698016,6.2593687 3.5413771,6.7145587 2.5447725,6.6001904 1.9321572,6.771227 1.319541,6.9422642 2.1207015,3.3646168 2.2148645,1.6619295 2.3090284,-0.04075845 5.0173251,1.3475658 6.4184516,1.1910051 7.819577,1.034445 6.3636225,3.1437719 6.336104,4.1207766 Z" />
    <path
       style="fill:#7900ff;stroke:none;stroke-width:1.12595928"
       d="M 8.8407842,7.9955315 C 8.6977504,7.9115384 8.2745687,7.7926558 7.9605682,7.5293598 7.6465678,7.2660639 7.4416313,6.8583896 7.1955241,6.3588653 6.949417,5.8593411 6.6616196,5.2669146 6.2274038,4.9222032 5.793188,4.5774918 5.2117632,4.4794684 4.9910483,4.3344706 4.7703334,4.1894728 4.9100667,3.9975196 5.1514419,4.1294034 c 0.2413752,0.1318837 0.5857723,0.5887518 1.087504,1.1411663 0.5017317,0.5524145 1.1604346,1.2000988 1.5984305,1.7006198 0.4379959,0.5005211 0.6546801,0.8533139 0.8319434,1.005351 0.1772633,0.1520371 0.3144981,0.1029841 0.1714644,0.018991 z"
       id="path928"
       inkscape:connector-curvature="0"
       inkscape:path-effect="#path-effect930"
       inkscape:original-d="M 9.1210788,8.0304623 C 8.697856,7.9111626 8.2746746,7.7922788 7.851544,7.6738172 7.6466964,7.2659992 7.441762,6.8583239 7.2369423,6.4512076 6.9496487,5.8592285 6.6618513,5.266802 6.3742952,4.6754616 5.7932615,4.577056 5.2118367,4.4790327 4.6305592,4.3814823 4.7700969,4.1893006 4.9098661,3.9973736 5.0495469,3.805914 5.3929879,4.2611584 5.7373863,4.7180254 6.0813766,5.1747119 6.7408645,5.8227941 7.3995672,6.4704786 8.0587339,7.1189924 8.2755261,7.4716161 8.4922093,7.8244096 8.7090185,8.1777484 8.8464407,8.1281792 8.9836803,8.0791395 9.1210788,8.0304623 Z"
       sodipodi:nodetypes="cccccccccc" />
    <path
       style="fill:#fe00ea;stroke:none;stroke-width:1.12595928"
       d="M 2.9291641,5.016389 C 3.2630769,5.3050884 3.9310649,5.8826273 4.3328625,6.5480357 4.7346601,7.2134442 4.8700996,7.966591 5.2508474,8.5159881 5.6315952,9.0653853 6.2570151,9.410159 6.2931267,9.3272238 6.3292382,9.2442886 5.77597,8.7337453 5.3728056,8.0769344 4.9696412,7.4201235 4.716657,6.6174207 4.3464707,5.9794814 3.9762844,5.3415422 3.4885194,4.8677826 3.1773277,4.6865199 2.8661359,4.5052573 2.7307904,4.6163867 2.6630176,4.6720336 2.5952447,4.7276805 2.5952512,4.7276897 2.9291641,5.016389 Z"
       id="path924"
       inkscape:connector-curvature="0"
       inkscape:path-effect="#path-effect926"
       inkscape:original-d="M 2.5952512,4.7276897 C 3.2633119,5.3048166 3.9313003,5.882355 4.5992236,6.4603139 4.7347995,7.2134191 4.870238,7.9665661 5.0056436,8.7203186 5.6317864,9.0650384 6.2572067,9.4098115 6.8828833,9.7551797 6.3294897,9.2440161 5.7762215,8.7334727 5.222761,8.2232566 4.9698342,7.4200627 4.7168499,6.6173599 4.4637719,5.8150322 3.976525,5.3412945 3.48876,4.8675349 3.001146,4.3944033 2.8659851,4.5050736 2.7306129,4.6161705 2.5952447,4.7276805 Z"
       sodipodi:nodetypes="ccccccccc" />
    <path
       style="fill:#fe00ea;stroke:none;stroke-width:1.12595928"
       d="m 2.0278777,5.2214594 c -0.058891,0.1205964 -0.080795,0.2589495 -0.062034,0.3918393 0.01876,0.1328899 0.078108,0.2597724 0.1680828,0.3593528 0.089975,0.099581 0.2102074,0.1714511 0.3405199,0.2035497 0.1303125,0.032099 0.270171,0.024294 0.3961031,-0.022104 0.0851,-0.031354 0.1656205,-0.081737 0.2180998,-0.1557042 0.02624,-0.036983 0.045045,-0.079503 0.052605,-0.1242153 0.00756,-0.044712 0.00365,-0.091597 -0.013239,-0.1336817 C 3.1065773,5.6870665 3.0655793,5.6436497 3.0205353,5.6077983 2.9754912,5.5719469 2.9257612,5.5424276 2.8796457,5.5079654 2.8335301,5.4735031 2.7902273,5.4329926 2.7640008,5.3817436 c -0.013113,-0.025625 -0.021728,-0.05373 -0.023528,-0.082458 -0.0018,-0.028729 0.00337,-0.05808 0.016393,-0.08375 0.011699,-0.023058 0.029574,-0.042826 0.050855,-0.05751 0.021281,-0.014684 0.045902,-0.024332 0.071352,-0.028891 0.058404,-0.010462 0.1187893,0.00587 0.1720542,0.03201 0.053265,0.026141 0.1011703,0.061807 0.1514416,0.093324 0.050271,0.031517 0.1044743,0.059432 0.1632765,0.067358 0.029401,0.00396 0.059679,0.00276 0.08821,-0.00537 0.028531,-0.00813 0.055258,-0.023366 0.075459,-0.045093 0.017043,-0.01833 0.029195,-0.040985 0.036186,-0.065018 0.00699,-0.024033 0.0089,-0.049416 0.00678,-0.074355 -0.00424,-0.049878 -0.024307,-0.097211 -0.049479,-0.14048 C 3.4978291,4.9482436 3.467447,4.9082593 3.4401356,4.866308 3.4128242,4.8243568 3.388302,4.7797243 3.376625,4.7310471 c -0.012582,-0.052449 -0.00955,-0.1084861 0.00823,-0.1594074 0.017784,-0.050921 0.050217,-0.096576 0.092193,-0.1304475 0.041976,-0.033871 0.093342,-0.055897 0.1467612,-0.063354 0.053419,-0.00746 0.1087463,-3.721e-4 0.1587164,0.019932 0.074855,0.030415 0.1345993,0.088102 0.1997076,0.1359473 0.032554,0.023923 0.067067,0.045721 0.1048358,0.060059 0.037769,0.014338 0.079118,0.020961 0.1189255,0.014074 0.034741,-0.00601 0.067434,-0.022241 0.094319,-0.045049 0.026886,-0.022808 0.048038,-0.05205 0.06282,-0.084058 C 4.3926988,4.4147276 4.3964905,4.3412271 4.386377,4.271443 4.36615,4.1318749 4.2934361,4.0037526 4.2756889,3.8638475 c -0.013208,-0.1041232 0.00662,-0.2148201 0.06824,-0.2997829 0.030812,-0.042481 0.07168,-0.077914 0.1190074,-0.1005895 0.047327,-0.022675 0.1011088,-0.032332 0.1531485,-0.025558 0.071393,0.00929 0.136401,0.048831 0.1868075,0.1002365 0.050407,0.051406 0.087556,0.1142563 0.1200909,0.1784813 0.032535,0.064225 0.061011,0.1305653 0.096863,0.1929993 0.035852,0.062434 0.079824,0.1215505 0.1376524,0.1644367 0.066531,0.04934 0.1502177,0.07506 0.232975,0.071605 0.082757,-0.00345 0.1640087,-0.036058 0.226202,-0.090764 C 5.6788691,4.0002072 5.7215723,3.9237811 5.7355663,3.8421424 5.7495603,3.7605037 5.7347486,3.6742202 5.6943332,3.6019201 5.6502642,3.5230841 5.5787406,3.4632776 5.5278869,3.3886378 5.50246,3.351318 5.4821043,3.3096702 5.475227,3.2650384 c -0.00688,-0.044632 7.601e-4,-0.092563 0.026946,-0.1293551 0.015759,-0.022142 0.037726,-0.039616 0.062326,-0.051168 0.0246,-0.011552 0.051767,-0.017275 0.078936,-0.017933 0.054338,-0.00132 0.1075844,0.017353 0.1550176,0.043895 0.094866,0.053085 0.1710143,0.1376417 0.2712301,0.1797649 0.072624,0.030526 0.1554105,0.036474 0.2315204,0.016145 0.07611,-0.02033 0.1450318,-0.066898 0.1918776,-0.1302342 0.034696,-0.046909 0.057233,-0.1024237 0.067254,-0.1599032 0.01002,-0.057479 0.00768,-0.1168655 -0.00465,-0.1738943 C 6.5310231,2.7282989 6.4671663,2.6254842 6.3878122,2.5399265 6.2291039,2.3688111 6.0125376,2.2638926 5.8337225,2.1139127 5.6175104,1.9325663 5.4590353,1.6874774 5.2312072,1.5209585 5.1071494,1.4302851 4.9640486,1.3649624 4.8133009,1.3351771 4.6625533,1.3053919 4.5042676,1.3115805 4.3576147,1.35746 4.2109618,1.4033395 4.0764296,1.4893005 3.9765999,1.6061167 3.8767701,1.7229329 3.8125022,1.8705867 3.7995289,2.0237 c -0.00735,0.086694 0.00139,0.1741982 -0.00675,0.2608223 -0.00407,0.043312 -0.012427,0.086494 -0.028665,0.1268522 -0.016238,0.040358 -0.040621,0.077902 -0.073619,0.1062499 -0.051084,0.043885 -0.1198982,0.063128 -0.1872288,0.064583 -0.067331,0.00145 -0.1339103,-0.013528 -0.1988592,-0.031337 -0.064949,-0.017809 -0.1293268,-0.038585 -0.1958348,-0.049178 -0.066508,-0.010593 -0.136202,-0.010559 -0.1994505,0.012574 -0.054158,0.019808 -0.1014251,0.055872 -0.1397842,0.09893 -0.038359,0.043058 -0.068249,0.093026 -0.094008,0.1446194 C 2.6238173,2.8610036 2.5874467,2.9726704 2.520734,3.0667506 2.4220182,3.2059625 2.2665585,3.2932567 2.1106697,3.3627075 1.9547808,3.4321583 1.7913337,3.4894243 1.6521767,3.5882175 1.5068688,3.6913775 1.3931209,3.8383814 1.329735,4.0049304 1.266349,4.1714795 1.2535763,4.356913 1.2935281,4.5305799 1.33348,4.7042469 1.4259979,4.8654585 1.5557892,4.9875673 1.6855805,5.1096762 1.8521305,5.192198 2.0279093,5.2214924 Z"
       id="path113"
       inkscape:connector-curvature="0"
       inkscape:path-effect="#path-effect115"
       inkscape:original-d="M 2.0278777,5.2214594 C 2.1530535,5.7663024 2.5897251,5.8428059 2.8705495,6.1540971 3.15137,6.4653909 3.0422593,5.877942 3.1280154,5.7404959 3.2137779,5.603059 2.88065,5.3901054 2.7568665,5.2155359 2.6330822,5.0409671 2.8384,5.1575172 2.8790738,5.1291349 2.9197374,5.100746 3.3127737,5.2235436 3.529515,5.2713655 3.7462629,5.3191965 3.4276564,4.9107354 3.376625,4.7310471 3.3255972,4.5513563 3.6473153,4.5084756 3.7825267,4.3977697 3.9177372,4.2870645 4.0649045,4.537403 4.2059956,4.6078503 4.3470772,4.6782902 4.2525215,4.1114244 4.2756889,3.8638475 4.2988497,3.6162613 4.5026608,3.5794398 4.6160849,3.4379175 4.7294688,3.2963404 4.9770965,3.8616061 5.1574987,4.0740713 5.3379009,4.2865364 5.515456,3.7588866 5.6943332,3.6019201 5.8732105,3.4449536 5.5662962,3.2906856 5.5021726,3.1356833 5.4380501,2.9806942 5.8805823,3.238309 6.0696827,3.2902433 6.2587831,3.3421775 6.3520028,3.2137476 6.4930807,3.1761538 6.634139,3.1385325 6.053582,2.4675853 5.8337225,2.1139127 5.6138703,1.7602492 5.432125,1.7181981 5.2312072,1.5209585 5.0303006,1.3237248 4.276823,1.8557017 3.7995289,2.0237 3.3222291,2.1916884 3.7269127,2.3525684 3.6904997,2.5176244 3.6540876,2.6826797 3.1696516,2.5149685 2.9091264,2.5142666 2.6486002,2.5135655 2.6502684,2.8821745 2.520734,3.0667506 2.3912127,3.2513451 1.9417636,3.4139776 1.6521767,3.5882175 1.3625908,3.7624567 1.9027326,4.67665 2.0279093,5.2214924 Z" />
    <path
       style="fill:#7900ff;stroke:none;stroke-width:1.12595928"
       d="M 7.7465946,9.7158973 C 7.6315055,9.5964488 7.2560513,9.367866 6.9301623,8.9000732 6.6042732,8.4322804 6.327751,7.7250421 6.0891579,7.3767769 5.8505648,7.0285117 5.6495221,7.0386614 5.4187092,6.7189623 5.1878963,6.3992632 4.9272203,5.7496036 4.5821828,5.2019244 4.2371452,4.6542451 3.8072391,4.2077013 3.9756633,4.5970996 4.1440876,4.986498 4.9100363,6.210755 5.5524801,7.0279256 6.1949238,7.8450962 6.7121446,8.2528351 7.0277533,8.6559297 7.343362,9.0590244 7.4568969,9.4571756 7.586601,9.6513775 c 0.1297041,0.1942018 0.2750828,0.1839683 0.1599936,0.06452 z"
       id="path928-6"
       inkscape:connector-curvature="0"
       inkscape:path-effect="#path-effect930-3"
       inkscape:original-d="M 8.007089,9.8251104 C 7.6317083,9.5961157 7.2562549,9.3675316 6.8807365,9.139368 6.6044858,8.4321973 6.3279636,7.724959 6.0514502,7.01837 5.8505431,7.0280811 5.6495004,7.0382307 5.4485264,7.0488087 5.1881112,6.399177 4.9274254,5.7495213 4.6667635,5.10049 4.2374016,4.6539983 3.8074955,4.2074544 3.3776984,3.761537 4.1443371,4.9863419 4.9102859,6.2105988 5.6772084,7.4369674 6.1951643,7.8447912 6.712385,8.2525301 7.2298511,8.6609569 7.3435352,9.058975 7.4570695,9.4571264 7.5705773,9.8558374 7.7162754,9.8451573 7.8616551,9.8349387 8.007089,9.8251104 Z"
       sodipodi:nodetypes="cccccccccc" />
    <path
       style="fill:#fe00ea;stroke:none;stroke-width:1.12595928"
       d="M 5.9150983,3.0175891 C 6.175162,3.3871817 6.5767565,3.8054634 6.7690925,4.4283071 6.9614286,5.0511508 6.9441114,5.8776852 7.3133616,6.4069924 7.6826118,6.9362996 8.4375847,7.1665734 8.5136491,7.1038823 8.5897135,7.0411913 7.9865114,6.6855267 7.4720708,6.113045 6.9576302,5.5405633 6.5321388,4.7516212 6.3213059,4.137525 6.110473,3.5234289 6.1141655,3.0839567 5.9993169,2.758124 5.8844684,2.4322913 5.6512481,2.2196199 5.5939051,2.2734912 5.536562,2.3273625 5.6550345,2.6479965 5.9150983,3.0175891 Z"
       id="path924-5"
       inkscape:connector-curvature="0"
       inkscape:path-effect="#path-effect926-7"
       inkscape:original-d="m 5.773631,2.9689661 c 0.4017875,0.4179693 0.803382,0.836251 1.2051242,1.2552 C 6.9614943,5.0511522 6.9441771,5.8776866 6.926762,6.7057583 7.6827397,6.9358802 8.4377126,7.1661541 9.1932687,7.3970641 8.5899233,7.0408354 7.9867212,6.6851708 7.3833162,6.3298662 6.9578701,5.5404339 6.5323787,4.7514918 6.1067804,3.9629257 6.1105441,3.5234295 6.1142366,3.0839573 6.1178526,2.6451121 5.8847193,2.4320162 5.6514989,2.2193449 5.4182435,2.0071452 5.5367694,2.3272859 5.6552419,2.6479199 5.773631,2.9689661 Z"
       sodipodi:nodetypes="ccccccccc" />
    <path
       style="fill:#fe00ea;stroke:none;stroke-width:1.12595928"
       d="m 4.5012195,5.0797724 c 0.3339129,0.2886993 1.0019007,0.8662382 1.5542917,1.3540559 0.552391,0.4878177 0.9887218,0.8855 1.1682946,1.2466828 0.1795729,0.3611828 0.101623,0.6852052 0.050432,0.7124967 C 7.2230466,8.4202992 7.1988324,8.1506715 6.9459065,7.7067058 6.6929807,7.2627401 6.2115261,6.6443459 5.7265073,6.0332063 5.2414884,5.4220668 4.7529791,4.8182659 4.4926154,4.6123108 4.2322518,4.4063557 4.19981,4.5985083 4.183555,4.6947861 c -0.016255,0.096278 -0.016248,0.096287 0.3176645,0.3849863 z"
       id="path924-56"
       inkscape:connector-curvature="0"
       inkscape:path-effect="#path-effect926-3"
       inkscape:original-d="M 4.1673067,4.7910731 C 4.8353673,5.3682 5.5033557,5.9457383 6.1712789,6.5236972 6.608153,6.9213709 7.0444838,7.3190531 7.4813214,7.717701 7.4033502,8.0416871 7.3254004,8.3657095 7.2473078,8.6904505 7.2231595,8.4202891 7.1989453,8.1506614 7.1746512,7.8814116 6.6932383,7.2625395 6.2117838,6.6441453 5.7302184,6.0261403 5.2417466,5.4218579 4.7532372,4.8180571 4.2646184,4.2146489 4.232253,4.4063559 4.1998112,4.5985085 4.1673001,4.7910639 Z"
       sodipodi:nodetypes="ccccccccc" />
  </g>
  <g
     inkscape:groupmode="layer"
     id="layer2"
     inkscape:label="bg" />
</svg>
